<svg width="14" height="14" viewBox="0 0 14 14" fill="none" xmlns="http://www.w3.org/2000/svg">
<path fill-rule="evenodd" clip-rule="evenodd" d="M7.00016 1.66683C4.05464 1.66683 1.66683 4.05464 1.66683 7.00016C1.66683 9.94568 4.05464 12.3335 7.00016 12.3335C9.94568 12.3335 12.3335 9.94568 12.3335 7.00016C12.3335 4.05464 9.94568 1.66683 7.00016 1.66683ZM0.333496 7.00016C0.333496 3.31826 3.31826 0.333496 7.00016 0.333496C10.6821 0.333496 13.6668 3.31826 13.6668 7.00016C13.6668 10.6821 10.6821 13.6668 7.00016 13.6668C3.31826 13.6668 0.333496 10.6821 0.333496 7.00016ZM7.66683 6.3335V4.3335H6.3335V6.3335H4.33384L4.33352 7.66683H6.3335V9.66683H7.66683V7.66683H9.66649L9.66681 6.3335H7.66683Z" fill="#383838"/>
</svg>
