<svg width="20" height="20" viewBox="0 0 20 20" fill="none" xmlns="http://www.w3.org/2000/svg">
<path fill-rule="evenodd" clip-rule="evenodd" d="M1.66675 4.1665C1.66675 3.43191 2.28288 2.9165 2.94126 2.9165H8.58062C8.98491 2.9165 9.38088 3.10628 9.62627 3.45166L10.4302 4.58317H16.6177C17.5198 4.58317 18.3334 5.28513 18.3334 6.24984V14.9998C18.3334 15.4209 18.1702 15.8848 17.9479 16.2397C17.7505 16.555 17.3127 17.0832 16.6177 17.0832H3.38243C2.48041 17.0832 1.66675 16.3812 1.66675 15.4165V4.1665ZM3.33341 6.24984V15.4022C3.34118 15.4083 3.35694 15.4165 3.38243 15.4165H16.4924C16.5047 15.401 16.5193 15.3808 16.5354 15.3551C16.5767 15.2891 16.6129 15.2106 16.6375 15.1341C16.6495 15.0968 16.6573 15.0644 16.6619 15.0388C16.6664 15.0135 16.6667 15.0006 16.6667 14.9999L16.6667 6.2641C16.659 6.25802 16.6432 6.24984 16.6177 6.24984H3.33341ZM9.16675 9.99984V7.9165H10.8334V9.99984H12.9167V11.6665H10.8334V13.7498H9.16675V11.6665H7.08341V9.99984H9.16675Z" fill="white"/>
</svg>
