<svg width="20" height="20" viewBox="0 0 20 20" fill="none" xmlns="http://www.w3.org/2000/svg">
<path fill-rule="evenodd" clip-rule="evenodd" d="M1.66675 4.16699C1.66675 3.4324 2.28288 2.91699 2.94126 2.91699H8.58062C8.98491 2.91699 9.38088 3.10677 9.62627 3.45214L10.4302 4.58366H16.6177C17.5198 4.58366 18.3334 5.28562 18.3334 6.25033V15.0003C18.3334 15.4214 18.1702 15.8853 17.9479 16.2402C17.7505 16.5555 17.3127 17.0837 16.6177 17.0837H3.38243C2.48041 17.0837 1.66675 16.3817 1.66675 15.417V4.16699ZM3.33341 6.25033V15.4027C3.34118 15.4088 3.35694 15.417 3.38243 15.417H16.4924C16.5047 15.4015 16.5193 15.3812 16.5354 15.3556C16.5767 15.2896 16.6129 15.211 16.6375 15.1345C16.6495 15.0973 16.6573 15.0649 16.6619 15.0393C16.6664 15.014 16.6667 15.0011 16.6667 15.0004L16.6667 6.26459C16.659 6.25851 16.6432 6.25033 16.6177 6.25033H3.33341ZM9.16675 10.0003V7.91699H10.8334V10.0003H12.9167V11.667H10.8334V13.7503H9.16675V11.667H7.08341V10.0003H9.16675Z" fill="#7464FA"/>
</svg>
