<svg width="20" height="20" viewBox="0 0 20 20" fill="none" xmlns="http://www.w3.org/2000/svg">
<path fill-rule="evenodd" clip-rule="evenodd" d="M16.6667 10.0003C16.6667 13.6822 13.682 16.667 10.0001 16.667C6.31818 16.667 3.33341 13.6822 3.33342 10.0003C3.33342 6.31843 6.31818 3.33366 10.0001 3.33366C13.682 3.33366 16.6667 6.31843 16.6667 10.0003ZM10.0001 18.3337C14.6025 18.3337 18.3334 14.6027 18.3334 10.0003C18.3334 5.39795 14.6025 1.66699 10.0001 1.66699C5.39771 1.66699 1.66675 5.39795 1.66675 10.0003C1.66675 14.6027 5.39771 18.3337 10.0001 18.3337ZM5.87491 9.13738L9.9997 13.2622L14.1245 9.13738L12.946 7.95887L9.9997 10.9051L7.05343 7.95887L5.87491 9.13738Z" fill="white"/>
</svg>
