<svg width="32" height="32" viewBox="0 0 32 32" fill="none" xmlns="http://www.w3.org/2000/svg">
<circle cx="16" cy="16" r="15.5" stroke="#F2F3F5"/>
<path d="M24 8H8V24H24V8Z" fill="white" fill-opacity="0.01"/>
<path d="M14.0948 22.3903C12.9777 22.0577 11.9834 21.4403 11.1961 20.6222C11.4898 20.2741 11.6668 19.8243 11.6668 19.3332C11.6668 18.2286 10.7714 17.3332 9.66683 17.3332C9.60001 17.3332 9.53396 17.3365 9.46883 17.3429C9.38009 16.9091 9.3335 16.4599 9.3335 15.9999C9.3335 15.303 9.44042 14.6311 9.63876 13.9997C9.6481 13.9998 9.65746 13.9999 9.66683 13.9999C10.7714 13.9999 11.6668 13.1044 11.6668 11.9999C11.6668 11.6828 11.593 11.3829 11.4617 11.1165C12.2327 10.3997 13.1737 9.86318 14.2175 9.57422C14.5483 10.2226 15.2224 10.6665 16.0002 10.6665C16.7779 10.6665 17.452 10.2226 17.7828 9.57422C18.8267 9.86318 19.7677 10.3997 20.5386 11.1165C20.4073 11.3829 20.3335 11.6828 20.3335 11.9999C20.3335 13.1044 21.2289 13.9999 22.3335 13.9999C22.3429 13.9999 22.3522 13.9998 22.3616 13.9997C22.5599 14.6311 22.6668 15.303 22.6668 15.9999C22.6668 16.4599 22.6202 16.9091 22.5315 17.3429C22.4664 17.3365 22.4003 17.3332 22.3335 17.3332C21.2289 17.3332 20.3335 18.2286 20.3335 19.3332C20.3335 19.8243 20.5105 20.2741 20.8042 20.6222C20.0169 21.4403 19.0226 22.0577 17.9056 22.3903C17.6478 21.5838 16.8922 20.9999 16.0002 20.9999C15.1082 20.9999 14.3526 21.5838 14.0948 22.3903Z" fill="#4E5969" stroke="#4E5969" stroke-width="1.33333" stroke-linejoin="round"/>
<path d="M15.9998 18.3332C17.2885 18.3332 18.3332 17.2885 18.3332 15.9998C18.3332 14.7112 17.2885 13.6665 15.9998 13.6665C14.7112 13.6665 13.6665 14.7112 13.6665 15.9998C13.6665 17.2885 14.7112 18.3332 15.9998 18.3332Z" fill="white" stroke="white" stroke-width="1.33333" stroke-linejoin="round"/>
</svg>
