<svg width="14" height="14" viewBox="0 0 14 14" fill="none" xmlns="http://www.w3.org/2000/svg">
<path fill-rule="evenodd" clip-rule="evenodd" d="M4.99996 4C4.99996 2.89543 5.89539 2 6.99996 2C8.10453 2 8.99996 2.89543 8.99996 4C8.99996 5.10457 8.10453 6 6.99996 6C5.89539 6 4.99996 5.10457 4.99996 4ZM6.99996 0.666664C5.15901 0.666664 3.66663 2.15905 3.66663 4C3.66663 5.84095 5.15901 7.33333 6.99996 7.33333C8.84091 7.33333 10.3333 5.84095 10.3333 4C10.3333 2.15905 8.84091 0.666664 6.99996 0.666664ZM4.33329 8C3.37381 8 2.46342 8.29237 1.78124 8.86984C1.08848 9.45626 0.666626 10.3092 0.666626 11.3333V12.3333C0.666626 12.8856 1.11434 13.3333 1.66663 13.3333H12.3333C12.8856 13.3333 13.3333 12.8856 13.3333 12.3333V11.3333C13.3333 10.3092 12.9114 9.45626 12.2187 8.86984C11.5365 8.29237 10.6261 8 9.66663 8H4.33329ZM1.99996 11.3333C1.99996 10.7007 2.24968 10.2202 2.6427 9.88751C3.04631 9.54586 3.63592 9.33333 4.33329 9.33333H9.66663C10.364 9.33333 10.9536 9.54586 11.3572 9.88751C11.7502 10.2202 12 10.7007 12 11.3333V12H1.99996V11.3333Z" fill="#4E5969"/>
</svg>
