<svg width="14" height="14" viewBox="0 0 14 14" fill="none" xmlns="http://www.w3.org/2000/svg">
<path fill-rule="evenodd" clip-rule="evenodd" d="M9.48519 0.764253C9.87571 0.373728 10.5089 0.373728 10.8994 0.764252L12.9937 2.85851L13.0442 2.97651L12.4315 3.23913C13.0442 2.97651 13.0445 2.97709 13.0447 2.97768L13.0453 2.9789L13.0464 2.98153L13.0488 2.98752C13.0506 2.99183 13.0526 2.99678 13.0548 3.00236C13.0592 3.01353 13.0644 3.02724 13.0702 3.04347C13.0818 3.07591 13.0958 3.11841 13.1107 3.17069C13.1404 3.27529 13.1735 3.41893 13.1974 3.5993C13.2451 3.96112 13.2549 4.4658 13.1294 5.09344C12.8774 6.35335 12.0914 8.05758 10.0744 10.0745C8.05754 12.0914 6.35331 12.8774 5.0934 13.1294C4.46576 13.255 3.96108 13.2452 3.59925 13.1974C3.41888 13.1736 3.27524 13.1405 3.17065 13.1107C3.11837 13.0959 3.07587 13.0818 3.04342 13.0702C3.0272 13.0644 3.01348 13.0592 3.00232 13.0549C2.99673 13.0527 2.99178 13.0507 2.98747 13.0489L2.98149 13.0464L2.97886 13.0453L2.97763 13.0448C2.97705 13.0445 2.97647 13.0443 3.23908 12.4315L2.97647 13.0443L2.85846 12.9937L0.764207 10.8995C0.373682 10.5089 0.373682 9.87576 0.764207 9.48524L2.64982 7.59962C3.04035 7.20909 3.67351 7.20909 4.06404 7.59962L5.37433 8.90991C5.45678 8.86364 5.55095 8.80831 5.65525 8.74313C6.08856 8.47231 6.69615 8.03163 7.36387 7.36392C8.03159 6.6962 8.47226 6.08861 8.74308 5.6553C8.80827 5.551 8.8636 5.45683 8.90986 5.37437L7.59957 4.06408C7.20905 3.67356 7.20905 3.04039 7.59957 2.64987L9.48519 0.764253ZM9.72089 5.2426C10.3399 5.49019 10.3398 5.49038 10.3397 5.49058L10.3396 5.49099L10.3392 5.49191L10.3383 5.49406L10.336 5.49966L10.3292 5.51594C10.3237 5.52902 10.3161 5.54653 10.3064 5.56824C10.287 5.61165 10.259 5.67186 10.2214 5.74698C10.1463 5.8972 10.033 6.10723 9.87375 6.36196C9.55531 6.87145 9.05317 7.56023 8.30668 8.30672C7.56018 9.05322 6.87141 9.55536 6.36191 9.87379C6.10718 10.033 5.89715 10.1464 5.74693 10.2215C5.67181 10.259 5.61161 10.287 5.5682 10.3065C5.54649 10.3162 5.52898 10.3237 5.51589 10.3293L5.49961 10.3361L5.49401 10.3384L5.49186 10.3392L5.49095 10.3396L5.49053 10.3398C5.49034 10.3398 5.49014 10.3399 5.24255 9.72094L5.49014 10.3399L5.08199 10.5032L3.35693 8.77813L1.94272 10.1923L3.59363 11.8433C3.63919 11.8539 3.69943 11.8657 3.77384 11.8755C3.99759 11.9051 4.3547 11.9174 4.83191 11.822C5.78171 11.632 7.25946 11.0039 9.13164 9.13168C11.0038 7.2595 11.632 5.78175 11.8219 4.83195C11.9174 4.35474 11.9051 3.99763 11.8755 3.77388C11.8657 3.69948 11.8539 3.63923 11.8432 3.59368L10.1923 1.94276L8.77808 3.35698L10.5031 5.08203L10.3399 5.49019L9.72089 5.2426Z" fill="#4E5969"/>
</svg>
