<svg width="12" height="15" viewBox="0 0 12 15" fill="none" xmlns="http://www.w3.org/2000/svg">
<path fill-rule="evenodd" clip-rule="evenodd" d="M1.66671 5.8018C1.66671 3.31706 3.62345 1.33333 6.00004 1.33333C8.37663 1.33333 10.3334 3.31706 10.3334 5.8018C10.3334 6.33823 10.0883 7.04179 9.6368 7.84991C9.19444 8.64168 8.59594 9.46079 7.98399 10.209C7.37406 10.9548 6.76232 11.6162 6.30216 12.0918C6.19182 12.2059 6.09039 12.309 6.00004 12.3999C5.90969 12.309 5.80827 12.2059 5.69793 12.0918C5.23776 11.6162 4.62602 10.9548 4.01609 10.209C3.40414 9.46079 2.80564 8.64168 2.36329 7.84991C1.9118 7.04179 1.66671 6.33823 1.66671 5.8018ZM5.54347 13.8191C5.54358 13.8192 5.54367 13.8193 6.00004 13.3333C6.45641 13.8193 6.4565 13.8192 6.45661 13.8191L6.00004 14.2479L5.54347 13.8191ZM5.54347 13.8191L6.00004 13.3333L6.45661 13.8191L6.4579 13.8179L6.4612 13.8148L6.4731 13.8035C6.48337 13.7938 6.49823 13.7797 6.51738 13.7613C6.55568 13.7246 6.61118 13.6711 6.68141 13.6023C6.82183 13.4647 7.02139 13.266 7.26043 13.0189C7.73776 12.5255 8.37602 11.8358 9.01609 11.0531C9.65414 10.273 10.3056 9.38649 10.8008 8.50022C11.2868 7.6303 11.6667 6.6834 11.6667 5.8018C11.6667 2.61443 9.1463 0 6.00004 0C2.85378 0 0.333374 2.61443 0.333374 5.8018C0.333374 6.6834 0.713283 7.6303 1.19929 8.50022C1.69444 9.38649 2.34594 10.273 2.98399 11.0531C3.62406 11.8358 4.26232 12.5255 4.73966 13.0189C4.97869 13.266 5.17825 13.4647 5.31867 13.6023C5.3889 13.6711 5.4444 13.7246 5.4827 13.7613L5.50246 13.7802L5.52698 13.8035L5.53889 13.8148L5.54218 13.8179L5.54347 13.8191ZM5.00004 5.33333C5.00004 4.78105 5.44776 4.33333 6.00004 4.33333C6.55233 4.33333 7.00004 4.78105 7.00004 5.33333C7.00004 5.88562 6.55233 6.33333 6.00004 6.33333C5.44776 6.33333 5.00004 5.88562 5.00004 5.33333ZM6.00004 3C4.71138 3 3.66671 4.04467 3.66671 5.33333C3.66671 6.622 4.71138 7.66667 6.00004 7.66667C7.28871 7.66667 8.33337 6.622 8.33337 5.33333C8.33337 4.04467 7.28871 3 6.00004 3Z" fill="#4E5969"/>
</svg>
