<svg width="18" height="17" viewBox="0 0 18 17" fill="none" xmlns="http://www.w3.org/2000/svg">
<path fill-rule="evenodd" clip-rule="evenodd" d="M8.34968 11.1625L10.0163 11.1599L10.0189 12.8266L8.35225 12.8291L8.34968 11.1625ZM8.33942 4.49581L10.0061 4.49324L10.0138 9.49324L8.34712 9.4958L8.33942 4.49581ZM9.158 0.327878C4.558 0.334962 0.838757 4.07403 0.845841 8.67402C0.852925 13.274 4.58367 17.0016 9.18366 16.9945C13.792 16.9874 17.5196 13.2484 17.5125 8.64836C17.5054 4.04836 13.7663 0.320782 9.158 0.327878ZM9.18943 15.3278C5.5061 15.3335 2.51818 12.3548 2.51251 8.67145C2.50683 4.98813 5.48557 2.0002 9.1689 1.99453C12.8522 1.98886 15.8402 4.96759 15.8458 8.65092C15.8515 12.3343 12.8728 15.3222 9.18943 15.3278Z" fill="#545A66"/>
</svg>
