<svg width="14" height="12" viewBox="0 0 14 12" fill="none" xmlns="http://www.w3.org/2000/svg">
<path fill-rule="evenodd" clip-rule="evenodd" d="M0.333374 1.33333C0.333374 0.596954 0.930327 0 1.66671 0H12.3334C13.0698 0 13.6667 0.596954 13.6667 1.33333V10.6667C13.6667 11.403 13.0698 12 12.3334 12H1.66671C0.930328 12 0.333374 11.403 0.333374 10.6667V1.33333ZM12.3334 1.33333L1.66671 1.33333V10.6667H12.3334V1.33333ZM5.66671 4.33333H2.66671V3H5.66671V4.33333ZM5.66671 6.66667H2.66671V5.33333H5.66671V6.66667ZM4.33337 9H2.66671V7.66667H4.33337V9ZM8.66671 7.33333C7.74623 7.33333 7.00004 8.07953 7.00004 9H5.66671C5.66671 7.77537 6.40049 6.72212 7.45236 6.25594C6.97475 5.89045 6.66671 5.31453 6.66671 4.66667C6.66671 3.5621 7.56214 2.66667 8.66671 2.66667C9.77128 2.66667 10.6667 3.5621 10.6667 4.66667C10.6667 5.31453 10.3587 5.89045 9.88105 6.25594C10.9329 6.72212 11.6667 7.77537 11.6667 9H10.3334C10.3334 8.07953 9.58718 7.33333 8.66671 7.33333ZM8.00004 4.66667C8.00004 4.29848 8.29852 4 8.66671 4C9.0349 4 9.33337 4.29848 9.33337 4.66667C9.33337 5.03486 9.0349 5.33333 8.66671 5.33333C8.29852 5.33333 8.00004 5.03486 8.00004 4.66667Z" fill="#4E5969"/>
</svg>
