<svg width="14" height="14" viewBox="0 0 14 14" fill="none" xmlns="http://www.w3.org/2000/svg">
<path fill-rule="evenodd" clip-rule="evenodd" d="M6.99998 1.66667C9.9455 1.66667 12.3333 4.05449 12.3333 7.00001C12.3333 9.94552 9.9455 12.3333 6.99998 12.3333C4.05446 12.3333 1.66665 9.94552 1.66665 7C1.66665 4.05449 4.05446 1.66667 6.99998 1.66667ZM13.6666 7.00001C13.6666 3.31811 10.6819 0.33334 6.99998 0.33334C3.31808 0.333338 0.333313 3.31811 0.333313 7C0.333312 10.6819 3.31808 13.6667 6.99998 13.6667C10.6819 13.6667 13.6666 10.6819 13.6666 7.00001ZM6.30962 10.3001L9.60945 7.00031L6.30962 3.70048L5.36681 4.64328L7.72384 7.00031L5.36681 9.35733L6.30962 10.3001Z" fill="black"/>
</svg>
