<svg width="18" height="18" viewBox="0 0 18 18" fill="none" xmlns="http://www.w3.org/2000/svg">
<path fill-rule="evenodd" clip-rule="evenodd" d="M15.6665 8.99996C15.6665 12.6819 12.6817 15.6666 8.99984 15.6666C5.31794 15.6666 2.33317 12.6819 2.33317 8.99996C2.33317 5.31806 5.31794 2.33329 8.99984 2.33329C12.6817 2.33329 15.6665 5.31806 15.6665 8.99996ZM8.99984 17.3333C13.6022 17.3333 17.3332 13.6023 17.3332 8.99996C17.3332 4.39759 13.6022 0.666626 8.99984 0.666626C4.39747 0.666625 0.666505 4.39759 0.666504 8.99996C0.666504 13.6023 4.39746 17.3333 8.99984 17.3333ZM4.87467 8.13701L8.99946 12.2618L13.1242 8.13701L11.9457 6.9585L8.99946 9.90478L6.05318 6.9585L4.87467 8.13701Z" fill="#7464FA"/>
</svg>
