<svg width="14" height="14" viewBox="0 0 14 14" fill="none" xmlns="http://www.w3.org/2000/svg">
<path fill-rule="evenodd" clip-rule="evenodd" d="M12.3333 7C12.3333 9.94551 9.9455 12.3333 6.99998 12.3333C4.05446 12.3333 1.66665 9.94551 1.66665 6.99999C1.66665 4.05448 4.05446 1.66666 6.99998 1.66666C9.9455 1.66666 12.3333 4.05448 12.3333 7ZM6.99998 13.6667C10.6819 13.6667 13.6666 10.6819 13.6666 7C13.6666 3.3181 10.6819 0.333329 6.99998 0.333328C3.31808 0.333328 0.333314 3.3181 0.333313 6.99999C0.333313 10.6819 3.31808 13.6667 6.99998 13.6667ZM3.69985 6.30964L6.99968 9.60947L10.2995 6.30964L9.3567 5.36683L6.99968 7.72385L4.64265 5.36683L3.69985 6.30964Z" fill="white"/>
</svg>
